<?xml version="1.0" encoding="UTF-8"?>
<svg version="1.1" xmlns="http://www.w3.org/2000/svg" width="288" height="288">
<path d="M0 0 C0 2.97 0 5.94 0 9 C-4.29 9.66 -8.58 10.32 -13 11 C-12.81824219 12.37776611 -12.63648438 13.75553223 -12.44921875 15.17504883 C-11.77637426 20.27928619 -11.10606326 25.38385358 -10.43652344 30.48852539 C-10.1462012 32.69922854 -9.85518887 34.90984118 -9.56347656 37.12036133 C-9.14467484 40.29484987 -8.72834328 43.46965399 -8.3125 46.64453125 C-8.18125732 47.63524124 -8.05001465 48.62595123 -7.91479492 49.64668274 C-7.79467041 50.56741074 -7.6745459 51.48813873 -7.55078125 52.43676758 C-7.44419189 53.2472908 -7.33760254 54.05781403 -7.2277832 54.89289856 C-7 57 -7 57 -7 60 C-12.94 60.495 -12.94 60.495 -19 61 C-19.85979864 54.98674512 -20.7141328 48.97274831 -21.56347656 42.95800781 C-21.85300117 40.91319979 -22.14400152 38.86860014 -22.43652344 36.82421875 C-22.85742829 33.88074811 -23.27296981 30.9365618 -23.6875 27.9921875 C-23.88436401 26.6277803 -23.88436401 26.6277803 -24.08520508 25.23580933 C-24.70675602 20.7837058 -25.15572213 16.50945337 -25 12 C-25.59167969 12.144375 -26.18335938 12.28875 -26.79296875 12.4375 C-27.58316406 12.623125 -28.37335938 12.80875 -29.1875 13 C-29.96480469 13.185625 -30.74210937 13.37125 -31.54296875 13.5625 C-34.08219346 14.0146354 -36.42666848 14.02998784 -39 14 C-39.0093457 14.98282959 -39.01869141 15.96565918 -39.02832031 16.97827148 C-39.06852615 20.66328428 -39.13436512 24.34748874 -39.20751953 28.03198242 C-39.23555341 29.61944101 -39.25685448 31.20703462 -39.27099609 32.79467773 C-39.45537358 52.33254584 -39.45537358 52.33254584 -46.3125 59.375 C-54.53844826 64.34882918 -61.81971975 65.2938492 -71.40625 63.56640625 C-77.44298386 61.69734057 -81.13586895 57.48070892 -84.06445312 52.01245117 C-85.42529299 47.63056103 -85.24557913 43.44776564 -85.1953125 38.88671875 C-85.19106766 37.43239189 -85.19106766 37.43239189 -85.18673706 35.94868469 C-85.17556991 32.86149595 -85.15047152 29.77460061 -85.125 26.6875 C-85.11496573 24.59049899 -85.10584066 22.49349342 -85.09765625 20.39648438 C-85.07564188 15.2642104 -85.04113571 10.1321549 -85 5 C-81.04 5 -77.08 5 -73 5 C-72.98541748 6.27641357 -72.97083496 7.55282715 -72.95581055 8.86791992 C-72.8977646 13.61120379 -72.82053172 18.35401607 -72.73754883 23.09692383 C-72.70432917 25.14827816 -72.67628803 27.19972325 -72.65356445 29.2512207 C-72.6199643 32.20302949 -72.56764524 35.15400886 -72.51171875 38.10546875 C-72.50532883 39.02023483 -72.4989389 39.93500092 -72.49235535 40.87748718 C-72.38192114 45.67841137 -72.21580246 49.15484963 -69 53 C-66.6586664 53.8888122 -66.6586664 53.8888122 -64.0625 53.9375 C-63.20785156 54.00839844 -62.35320312 54.07929688 -61.47265625 54.15234375 C-58.68949206 53.98086918 -57.25623931 53.64223034 -55 52 C-52.46999818 47.33931891 -52.56091566 42.49934046 -52.3671875 37.32421875 C-52.32562531 36.3990596 -52.28406311 35.47390045 -52.24124146 34.52070618 C-52.11087847 31.57659504 -51.99277594 28.63213887 -51.875 25.6875 C-51.78856958 23.68681384 -51.70133909 21.68616207 -51.61328125 19.68554688 C-51.39958106 14.79071467 -51.1968723 9.89553674 -51 5 C-50.33969788 5.02578125 -49.67939575 5.0515625 -48.99908447 5.078125 C-39.89621449 5.37669447 -31.08885002 3.87805783 -22.125 2.5 C-19.7542377 2.14042795 -17.38317024 1.78321359 -15.01144409 1.43005371 C-13.5472277 1.21155242 -12.08357987 0.98919393 -10.62063599 0.7623291 C-7.04761495 0.22434905 -3.61412693 -0.12260183 0 0 Z " fill="#4F8BE7" transform="translate(199,160)"/>
<path d="M0 0 C6.80373722 6.99812971 7.49574 14.19233973 7.3984375 23.58203125 C6.82719079 33.5153768 3.52175125 43.32834277 -3.93359375 50.20703125 C-10.79457247 55.01760254 -17.65891547 55.36575367 -25.8125 54.25 C-32.80947584 52.32506778 -38.83521638 48.5227453 -42.625 42.25 C-46.82208963 31.64682619 -44.46209766 20.67742188 -40.8125 10.25 C-37.78567461 3.86488131 -33.85598745 -0.1686741 -27.8125 -3.75 C-18.54189368 -6.79466229 -8.14337026 -5.06698594 0 0 Z M-24.625 6.125 C-30.79177324 14.93467606 -32.50379819 24.66782001 -31.8125 35.25 C-30.75220743 39.31445485 -28.95912552 41.49670267 -25.8125 44.25 C-22.59737321 45.8575634 -19.29975721 45.71362379 -15.8125 45.25 C-10.88055252 42.55984683 -8.6693426 38.384127 -6.8125 33.25 C-4.55327603 24.36627184 -3.45636657 16.63959031 -7.8125 8.25 C-9.87868078 5.77058306 -11.53880174 4.42516479 -14.80078125 3.9765625 C-18.89625551 3.7976006 -21.14054104 3.80202736 -24.625 6.125 Z " fill="#4F8BE9" transform="translate(101.8125,164.75)"/>
<path d="M0 0 C0.68261719 1.74356079 0.68261719 1.74356079 1.296875 4.04150391 C1.53051758 4.89974762 1.76416016 5.75799133 2.00488281 6.64224243 C2.25077148 7.57756805 2.49666016 8.51289368 2.75 9.4765625 C3.0087793 10.43517181 3.26755859 11.39378113 3.53417969 12.38143921 C4.36366751 15.46065635 5.1820235 18.5427071 6 21.625 C6.55133713 23.68118981 7.10341141 25.73718212 7.65625 27.79296875 C8.43849564 30.70265243 9.21964152 33.61258267 9.99511719 36.52407837 C10.22875977 37.40123505 10.46240234 38.27839172 10.703125 39.18212891 C11.03304443 40.42086761 11.03304443 40.42086761 11.36962891 41.68463135 C11.94139674 43.78474878 12.54609252 45.87162018 13.1640625 47.95849609 C13.94758621 50.80929584 14.17788034 53.06497446 14 56 C10.12315913 57.19287411 7.08378077 58 3 58 C1.99093539 54.75274421 0.99434878 51.50178926 0 48.25 C-0.28617188 47.32960937 -0.57234375 46.40921875 -0.8671875 45.4609375 C-1.13789063 44.57148438 -1.40859375 43.68203125 -1.6875 42.765625 C-2.06455078 41.54020996 -2.06455078 41.54020996 -2.44921875 40.29003906 C-3 38 -3 38 -3 34 C-13.395 36.97 -13.395 36.97 -24 40 C-23.566875 41.55332031 -23.13375 43.10664063 -22.6875 44.70703125 C-22.12479933 46.74213202 -21.5623103 48.77729133 -21 50.8125 C-20.71382812 51.83666016 -20.42765625 52.86082031 -20.1328125 53.91601562 C-19.86210937 54.89892578 -19.59140625 55.88183594 -19.3125 56.89453125 C-19.06113281 57.80050049 -18.80976563 58.70646973 -18.55078125 59.63989258 C-18 62 -18 62 -18 65 C-22.15944744 66.30492469 -25.65036909 67.12019705 -30 67 C-30.13986328 66.45512939 -30.27972656 65.91025879 -30.42382812 65.34887695 C-31.11330087 62.66941071 -31.80611469 59.99082707 -32.5 57.3125 C-32.76119629 56.30405029 -33.02239258 55.29560059 -33.29150391 54.2565918 C-34.86920811 48.20811522 -36.49501187 42.17563053 -38.1796875 36.15625 C-38.36215027 35.50279099 -38.54461304 34.84933197 -38.73260498 34.17607117 C-39.63457543 30.94845974 -40.54262169 27.72284162 -41.45898438 24.49926758 C-41.95495117 22.73039185 -41.95495117 22.73039185 -42.4609375 20.92578125 C-42.90638916 19.35437378 -42.90638916 19.35437378 -43.36083984 17.7512207 C-44 15 -44 15 -44 11 C-40.17679443 9.57741188 -37.08718695 8.75957724 -33 9 C-30.42718118 16.22839572 -28.63304408 23.50652821 -27 31 C-26.47792969 30.81824219 -25.95585937 30.63648438 -25.41796875 30.44921875 C-19.34250187 28.37440957 -13.20694217 26.63584831 -7 25 C-7.27714844 23.84242188 -7.55429688 22.68484375 -7.83984375 21.4921875 C-8.20583437 19.95315001 -8.57171391 18.41408611 -8.9375 16.875 C-9.21110352 15.73417969 -9.21110352 15.73417969 -9.49023438 14.5703125 C-10.47990173 10.39571566 -11.35572979 6.24540161 -12 2 C-10.37787941 1.47026689 -8.75218416 0.95146893 -7.125 0.4375 C-6.22007812 0.14746094 -5.31515625 -0.14257812 -4.3828125 -0.44140625 C-2 -1 -2 -1 0 0 Z " fill="#4E89E6" transform="translate(244,148)"/>
<path d="M0 0 C0 13.2 0 26.4 0 40 C1.65 40.66 3.3 41.32 5 42 C9.24056673 44.1948123 13.39464892 46.54555791 17.5625 48.875 C18.69880859 49.50019531 19.83511719 50.12539062 21.00585938 50.76953125 C22.09833984 51.37925781 23.19082031 51.98898438 24.31640625 52.6171875 C25.31099854 53.17003418 26.30559082 53.72288086 27.33032227 54.29248047 C29.9408138 55.96214465 31.90881589 57.7259886 34 60 C31.9463858 61.20570907 29.88444845 62.38906641 27.8125 63.5625 C27.23435547 63.90474609 26.65621094 64.24699219 26.06054688 64.59960938 C23.51766171 66.02190108 21.65078543 67.05370861 18.69848633 66.81005859 C15.30905035 65.79258383 12.55628144 64.24505007 9.4921875 62.47265625 C8.884888 62.12367783 8.2775885 61.7746994 7.65188599 61.41514587 C5.72240215 60.30412518 3.79877211 59.18337549 1.875 58.0625 C0.57457678 57.31252989 -0.72620115 56.56317448 -2.02734375 55.81445312 C-11.3236472 50.45090187 -11.3236472 50.45090187 -15 48 C-15.4159189 44.96121049 -15.63659878 42.13454514 -15.71484375 39.08203125 C-15.73905899 38.19142502 -15.76327423 37.30081879 -15.78822327 36.38322449 C-15.82975782 34.49451226 -15.86191936 32.60557445 -15.88549805 30.71655273 C-15.93705711 27.83723306 -16.06854426 24.96835903 -16.20117188 22.09179688 C-16.53915598 8.6733432 -16.53915598 8.6733432 -12.36767578 4.13818359 C-8.25535024 1.67624409 -4.83434184 0 0 0 Z " fill="#DE3330" transform="translate(122,73)"/>
<path d="M0 0 C2.85317566 0.98644678 5.25019744 2.24419371 7.83203125 3.80859375 C8.71503906 4.33324219 9.59804687 4.85789062 10.5078125 5.3984375 C11.17167969 5.88441406 11.83554688 6.37039062 12.51953125 6.87109375 C12.51953125 7.53109375 12.51953125 8.19109375 12.51953125 8.87109375 C11.75809814 9.30977783 10.99666504 9.74846191 10.2121582 10.20043945 C7.36983161 11.83826924 4.52773533 13.47649727 1.68579102 15.11499023 C0.45899419 15.82217971 -0.7678925 16.52921332 -1.99487305 17.23608398 C-3.76505166 18.25593111 -5.53489944 19.27635032 -7.3046875 20.296875 C-8.36776123 20.90958252 -9.43083496 21.52229004 -10.52612305 22.15356445 C-12.44858919 23.27120343 -14.35504863 24.4170005 -16.24145508 25.59448242 C-18.48046875 26.87109375 -18.48046875 26.87109375 -20.48046875 26.87109375 C-20.48046875 40.07109375 -20.48046875 53.27109375 -20.48046875 66.87109375 C-24.48046875 65.87109375 -24.48046875 65.87109375 -35.48046875 59.87109375 C-35.48046875 46.34109375 -35.48046875 32.81109375 -35.48046875 18.87109375 C-21.79296875 11.05859375 -21.79296875 11.05859375 -17.5012207 8.61010742 C-16.37675537 7.9679126 -15.25229004 7.32571777 -14.09375 6.6640625 C-13.51475952 6.33394165 -12.93576904 6.0038208 -12.3392334 5.66369629 C-9.76807359 4.19454028 -7.22512269 2.70954182 -4.72216797 1.12597656 C-2.48046875 -0.12890625 -2.48046875 -0.12890625 0 0 Z " fill="#E13638" transform="translate(125.48046875,51.12890625)"/>
<path d="M0 0 C11.17305977 2.23461195 11.17305977 2.23461195 15 7 C16.75285591 13.7164857 15.93051925 21.01522807 15.625 27.875 C15.57481557 29.82280332 15.52919229 31.77072985 15.48828125 33.71875 C15.37830463 38.48221248 15.20592018 43.23975902 15 48 C14.28457031 48.39791748 13.56914062 48.79583496 12.83203125 49.20581055 C10.13986267 50.70448298 7.44874861 52.20502805 4.75830078 53.70678711 C3.03627108 54.66726938 1.31306956 55.62564974 -0.41015625 56.58398438 C-1.51230469 57.19951172 -2.61445313 57.81503906 -3.75 58.44921875 C-4.82765625 59.05040527 -5.9053125 59.6515918 -7.015625 60.27099609 C-9.59171204 61.76345752 -12.03917679 63.34795232 -14.5 65.01953125 C-16.92576942 66.55146255 -17.69908301 66.9995542 -20.63671875 67.00390625 C-23.4704127 65.80017179 -26.13246451 64.45511046 -28.8125 62.9375 C-29.78832031 62.38964844 -30.76414063 61.84179688 -31.76953125 61.27734375 C-32.50558594 60.85582031 -33.24164063 60.43429688 -34 60 C-31.43996564 57.11625155 -28.52270815 55.41249865 -25.1953125 53.49609375 C-23.48408203 52.50899414 -23.48408203 52.50899414 -21.73828125 51.50195312 C-20.84810303 50.99353882 -20.84810303 50.99353882 -19.93994141 50.47485352 C-18.13477611 49.44308766 -16.33471804 48.40283005 -14.53515625 47.36132812 C-9.72185065 44.59652632 -5.16602361 42.06640944 0 40 C0 26.8 0 13.6 0 0 Z " fill="#E33435" transform="translate(178,44)"/>
<path d="M0 0 C2.20539872 1.10653241 4.37196612 2.29188524 6.5078125 3.52734375 C7.115112 3.87632217 7.7224115 4.2253006 8.34811401 4.58485413 C10.27759785 5.69587482 12.20122789 6.81662451 14.125 7.9375 C15.42542322 8.68747011 16.72620115 9.43682552 18.02734375 10.18554688 C27.3236472 15.54909813 27.3236472 15.54909813 31 18 C31.4159189 21.03878951 31.63659878 23.86545486 31.71484375 26.91796875 C31.73905899 27.80857498 31.76327423 28.69918121 31.78822327 29.61677551 C31.82975782 31.50548774 31.86191936 33.39442555 31.88549805 35.28344727 C31.93705711 38.16276694 32.06854426 41.03164097 32.20117188 43.90820312 C32.53915598 57.3266568 32.53915598 57.3266568 28.36767578 61.86181641 C24.25535024 64.32375591 20.83434184 66 16 66 C16.10062744 64.86159668 16.20125488 63.72319336 16.30493164 62.55029297 C18.74069436 41.76428874 18.74069436 41.76428874 12.61181641 22.79589844 C6.7227085 18.02592242 0.06124633 15.33477989 -7.09472656 12.99804688 C-10.74382404 11.74447456 -13.74823248 10.05474005 -17 8 C-15.70538169 4.11614507 -14.28058761 3.69465521 -10.75 1.75 C-9.79609375 1.20859375 -8.8421875 0.6671875 -7.859375 0.109375 C-4.4793466 -1.20200214 -3.43684126 -0.99500461 0 0 Z " fill="#E32B2E" transform="translate(145,23)"/>
<path d="M0 0 C0.79148438 0.495 1.58296875 0.99 2.3984375 1.5 C3.37039062 2.07234375 4.34234375 2.6446875 5.34375 3.234375 C6.39304688 3.89953125 7.44234375 4.5646875 8.5234375 5.25 C13.57029427 8.41490476 18.68866438 11.36489464 23.94140625 14.1796875 C27.12986562 15.89304086 30.26448115 17.68926967 33.3984375 19.5 C33.3984375 24.78 33.3984375 30.06 33.3984375 35.5 C28.89000797 34.59831409 26.66858586 33.71948089 22.8359375 31.4453125 C21.79179687 30.83042969 20.74765625 30.21554688 19.671875 29.58203125 C18.59164062 28.93621094 17.51140625 28.29039063 16.3984375 27.625 C15.31820312 26.98691406 14.23796875 26.34882812 13.125 25.69140625 C4.60466326 20.65283675 4.60466326 20.65283675 1.92578125 18.66748047 C-0.60378542 17.19480129 -0.60378542 17.19480129 -3.5559082 18.11328125 C-6.59637621 19.49763863 -9.45458032 20.99011226 -12.33203125 22.6875 C-13.38197266 23.30367187 -14.43191406 23.91984375 -15.51367188 24.5546875 C-16.59455078 25.19664063 -17.67542969 25.83859375 -18.7890625 26.5 C-19.88154297 27.14195313 -20.97402344 27.78390625 -22.09960938 28.4453125 C-27.91698361 31.86617738 -27.91698361 31.86617738 -33.6015625 35.5 C-34.5915625 35.5 -35.5815625 35.5 -36.6015625 35.5 C-37.61567733 30.15766961 -38.51196391 24.73061776 -36.6015625 19.5 C-32.81098044 15.21037773 -27.15352937 13.06506123 -22.05322266 10.70605469 C-19.54723977 9.47327681 -17.22372312 8.09262655 -14.86328125 6.6015625 C-14.106521 6.12509277 -13.34976074 5.64862305 -12.57006836 5.15771484 C-11.1169846 4.23568547 -9.66837079 3.30656458 -8.22485352 2.36962891 C-3.30194059 -0.6346072 -3.30194059 -0.6346072 0 0 Z " fill="#E43234" transform="translate(126.6015625,31.5)"/>
<path d="M0 0 C3.80395402 0.9509885 6.29995942 2.14209128 9.68359375 4.0546875 C11.32231445 4.97701172 11.32231445 4.97701172 12.99414062 5.91796875 C14.13044922 6.56378906 15.26675781 7.20960937 16.4375 7.875 C17.56994141 8.51308594 18.70238281 9.15117188 19.86914062 9.80859375 C28.78586273 14.84231195 28.78586273 14.84231195 31.48852539 16.83251953 C34.0040645 18.30580733 34.0040645 18.30580733 36.9543457 17.38671875 C39.99481371 16.00236137 42.85301782 14.50988774 45.73046875 12.8125 C47.30538086 11.88824219 47.30538086 11.88824219 48.91210938 10.9453125 C49.99298828 10.30335937 51.07386719 9.66140625 52.1875 9 C53.27998047 8.35804687 54.37246094 7.71609375 55.49804688 7.0546875 C61.31542111 3.63382262 61.31542111 3.63382262 67 0 C67.99 0 68.98 0 70 0 C70.75687328 5.33045797 71.45360063 10.73340967 70 16 C66.9404198 19.436485 63.36801026 20.99801055 59.21777344 22.87792969 C56.62867246 24.18787113 54.29146456 25.73418435 51.8828125 27.3515625 C38.44134744 36.19830923 38.44134744 36.19830923 32.44140625 35.7109375 C29.24233504 34.12202298 26.75644757 32.26771573 24 30 C21.82802278 28.64152697 19.63990634 27.30856423 17.4375 26 C16.37015625 25.3296875 15.3028125 24.659375 14.203125 23.96875 C9.56674144 21.11907035 4.80115593 18.5606165 0 16 C0 10.72 0 5.44 0 0 Z " fill="#E33335" transform="translate(123,95)"/>
<path d="M0 0 C1.43793392 0.31049726 2.8753318 0.6234776 4.3125 0.9375 C5.11300781 1.11152344 5.91351563 1.28554687 6.73828125 1.46484375 C9 2 9 2 12 3 C13.32 11.58 14.64 20.16 16 29 C17.876875 27.14375 19.75375 25.2875 21.6875 23.375 C22.26846436 22.80313965 22.84942871 22.2312793 23.44799805 21.64208984 C26.03709367 19.0666141 28.43608145 16.48881477 30.67578125 13.6015625 C31.82626953 12.31378906 31.82626953 12.31378906 33 11 C37.41790987 11 41.00185181 12.18265991 45 14 C44.67 14.99 44.34 15.98 44 17 C43.34 17 42.68 17 42 17 C41.731875 17.598125 41.46375 18.19625 41.1875 18.8125 C40.00082594 20.99847854 38.90400887 22.41332594 37 24 C36.34 24 35.68 24 35 24 C34.34 25.32 33.68 26.64 33 28 C32.34 28 31.68 28 31 28 C30.77699219 28.56847656 30.55398437 29.13695312 30.32421875 29.72265625 C28.61996185 32.65357593 26.40785048 34.2574056 23.8125 36.4375 C15.8642381 43.65332375 13.68363112 53.94723261 11 64 C9.5608866 63.71640113 8.12374482 63.42278601 6.6875 63.125 C5.88699219 62.96257812 5.08648437 62.80015625 4.26171875 62.6328125 C2 62 2 62 -1 60 C-0.33291016 58.15148437 -0.33291016 58.15148437 0.34765625 56.265625 C0.9204624 54.59415787 1.49200928 52.92225883 2.0625 51.25 C2.35705078 50.44433594 2.65160156 49.63867188 2.95507812 48.80859375 C5.26834563 41.89600614 5.03019006 36.15774951 4 29 C3.84523193 27.8980127 3.69046387 26.79602539 3.53100586 25.66064453 C3.02761485 22.24793164 2.48911981 18.84272903 1.9375 15.4375 C1.56960709 13.14485248 1.20362745 10.85189688 0.83984375 8.55859375 C0.67863037 7.56142334 0.51741699 6.56425293 0.35131836 5.53686523 C0 3 0 3 0 0 Z " fill="#4E89E5" transform="translate(25,144)"/>
<path d="M0 0 C0.99 0 1.98 0 3 0 C3 1.65 3 3.3 3 5 C3.66 5 4.32 5 5 5 C5.33 3.68 5.66 2.36 6 1 C6.66 1 7.32 1 8 1 C8 2.32 8 3.64 8 5 C8.66 5 9.32 5 10 5 C10 5.66 10 6.32 10 7 C9.34 7 8.68 7 8 7 C8 9.64 8 12.28 8 15 C7.01 15 6.02 15 5 15 C5 12.36 5 9.72 5 7 C4.34 7 3.68 7 3 7 C3 9.64 3 12.28 3 15 C1.39773045 15.22245393 -0.20696767 15.42746669 -1.8125 15.625 C-2.70582031 15.74101562 -3.59914063 15.85703125 -4.51953125 15.9765625 C-7 16 -7 16 -10 14 C-10.29296875 11.8359375 -10.29296875 11.8359375 -10.1875 9.375 C-10.16042969 8.55773437 -10.13335937 7.74046875 -10.10546875 6.8984375 C-10.07066406 6.27195313 -10.03585938 5.64546875 -10 5 C-9.01 5 -8.02 5 -7 5 C-7 7.64 -7 10.28 -7 13 C-6.01 13 -5.02 13 -4 13 C-4 10.36 -4 7.72 -4 5 C-2.68 5 -1.36 5 0 5 C0 3.35 0 1.7 0 0 Z " fill="#6C2223" transform="translate(120,247)"/>
<path d="M0 0 C0.99 0 1.98 0 3 0 C3 4.95 3 9.9 3 15 C-4.875 16.125 -4.875 16.125 -8 14 C-8.99 14.66 -9.98 15.32 -11 16 C-16.55555556 15.44444444 -16.55555556 15.44444444 -18 14 C-18.1875 10.5625 -18.1875 10.5625 -18 7 C-16 5 -16 5 -13 4.75 C-10 5 -10 5 -8 7 C-7.236875 6.484375 -6.47375 5.96875 -5.6875 5.4375 C-4.800625 4.963125 -3.91375 4.48875 -3 4 C-2.01 4.33 -1.02 4.66 0 5 C0 3.35 0 1.7 0 0 Z M-15 7 C-15 7.66 -15 8.32 -15 9 C-13.68 9 -12.36 9 -11 9 C-11 8.34 -11 7.68 -11 7 C-12.32 7 -13.64 7 -15 7 Z M-4 7 C-4.33 8.65 -4.66 10.3 -5 12 C-3.68 12.33 -2.36 12.66 -1 13 C-0.67 11.35 -0.34 9.7 0 8 C-1.32 7.67 -2.64 7.34 -4 7 Z M-15 11 C-15 11.66 -15 12.32 -15 13 C-11.535 12.505 -11.535 12.505 -8 12 C-8 11.67 -8 11.34 -8 11 C-10.31 11 -12.62 11 -15 11 Z " fill="#9E5F61" transform="translate(169,247)"/>
<path d="M0 0 C0.99 -0.33 1.98 -0.66 3 -1 C3.99 -0.34 4.98 0.32 6 1 C6.29296875 3.1640625 6.29296875 3.1640625 6.1875 5.625 C6.16042969 6.44226563 6.13335937 7.25953125 6.10546875 8.1015625 C6.07066406 8.72804688 6.03585938 9.35453125 6 10 C5.01 10 4.02 10 3 10 C3 7.36 3 4.72 3 2 C2.34 2 1.68 2 1 2 C1 4.64 1 7.28 1 10 C-0.32 10 -1.64 10 -3 10 C-3 7.36 -3 4.72 -3 2 C-3.66 2 -4.32 2 -5 2 C-5 4.64 -5 7.28 -5 10 C-6.32 10 -7.64 10 -9 10 C-9 7.03 -9 4.06 -9 1 C-5.45793787 -0.67264045 -3.72637481 -1.11791244 0 0 Z " fill="#AC413E" transform="translate(144,252)"/>
<path d="M0 0 C1.60725635 3.21451269 1.05748185 6.43612536 1 10 C0.01 10 -0.98 10 -2 10 C-2.33 7.69 -2.66 5.38 -3 3 C-3.33 3 -3.66 3 -4 3 C-4.33 5.31 -4.66 7.62 -5 10 C-5.99 10 -6.98 10 -8 10 C-8 7.36 -8 4.72 -8 2 C-8.99 2 -9.98 2 -11 2 C-11 4.64 -11 7.28 -11 10 C-11.99 10 -12.98 10 -14 10 C-14 6.7 -14 3.4 -14 0 C-9.37122006 -1.34383934 -4.66534956 -1.10850248 0 0 Z " fill="#A67371" transform="translate(108,252)"/>
<path d="M0 0 C0 3.3 0 6.6 0 10 C-6.4 11.35384615 -6.4 11.35384615 -9.4375 9.5625 C-9.953125 9.046875 -10.46875 8.53125 -11 8 C-10.5154185 1.45814978 -10.5154185 1.45814978 -8.3125 -0.5 C-5.31349776 -1.14843292 -2.96844996 -0.67464772 0 0 Z M-7 2 C-7.33 3.65 -7.66 5.3 -8 7 C-6.68 7.33 -5.36 7.66 -4 8 C-3.67 6.35 -3.34 4.7 -3 3 C-4.32 2.67 -5.64 2.34 -7 2 Z " fill="#CB7D7E" transform="translate(189,252)"/>
<path d="M0 0 C0.66 0 1.32 0 2 0 C2 1.65 2 3.3 2 5 C2.66 5 3.32 5 4 5 C4.33 3.68 4.66 2.36 5 1 C5.66 1 6.32 1 7 1 C7 2.32 7 3.64 7 5 C7.66 5 8.32 5 9 5 C9 5.66 9 6.32 9 7 C8.34 7 7.68 7 7 7 C7 9.64 7 12.28 7 15 C6.01 15 5.02 15 4 15 C4 12.36 4 9.72 4 7 C3.34 7 2.68 7 2 7 C2 9.64 2 12.28 2 15 C1.34 15 0.68 15 0 15 C0 10.05 0 5.1 0 0 Z " fill="#D75153" transform="translate(121,247)"/>
<path d="M0 0 C2.9375 0.1875 2.9375 0.1875 3.9375 1.1875 C3.97813832 2.85367115 3.980221 4.52138095 3.9375 6.1875 C1.9575 6.1875 -0.0225 6.1875 -2.0625 6.1875 C-2.0625 6.8475 -2.0625 7.5075 -2.0625 8.1875 C1.4025 7.6925 1.4025 7.6925 4.9375 7.1875 C4.6075 8.1775 4.2775 9.1675 3.9375 10.1875 C1.02267222 10.99717438 -0.52363217 11.40595993 -3.375 10.25 C-3.931875 9.899375 -4.48875 9.54875 -5.0625 9.1875 C-5.1875 5.8125 -5.1875 5.8125 -5.0625 2.1875 C-3.0625 0.1875 -3.0625 0.1875 0 0 Z M-2.0625 2.1875 C-2.0625 2.8475 -2.0625 3.5075 -2.0625 4.1875 C-0.7425 4.1875 0.5775 4.1875 1.9375 4.1875 C1.9375 3.5275 1.9375 2.8675 1.9375 2.1875 C0.6175 2.1875 -0.7025 2.1875 -2.0625 2.1875 Z " fill="#BE5A59" transform="translate(156.0625,251.8125)"/>
<path d="M0 0 C0.66 0 1.32 0 2 0 C2 4.95 2 9.9 2 15 C0.02 15 -1.96 15 -4 15 C-4 14.34 -4 13.68 -4 13 C-3.34 12.67 -2.68 12.34 -2 12 C-1.30772968 9.19019327 -1.30772968 9.19019327 -0.875 5.9375 C-0.70742187 4.83277344 -0.53984375 3.72804687 -0.3671875 2.58984375 C-0.24601563 1.73519531 -0.12484375 0.88054687 0 0 Z " fill="#E44648" transform="translate(170,247)"/>
<path d="M0 0 C1.98 0.99 1.98 0.99 4 2 C4 7.28 4 12.56 4 18 C3.01 17.67 2.02 17.34 1 17 C1.01160156 16.02417969 1.02320313 15.04835938 1.03515625 14.04296875 C1.04417969 12.77066406 1.05320313 11.49835937 1.0625 10.1875 C1.07410156 8.92292969 1.08570313 7.65835938 1.09765625 6.35546875 C1.16159116 3.00394763 1.16159116 3.00394763 0 0 Z " fill="#859B95" transform="translate(156,49)"/>
<path d="M0 0 C0.99 0 1.98 0 3 0 C3 2.64 3 5.28 3 8 C3.99 8.33 4.98 8.66 6 9 C6 9.66 6 10.32 6 11 C1.125 10.125 1.125 10.125 0 9 C-0.07179964 7.48071962 -0.08392007 5.95832518 -0.0625 4.4375 C-0.05347656 3.61121094 -0.04445313 2.78492188 -0.03515625 1.93359375 C-0.02355469 1.29550781 -0.01195313 0.65742188 0 0 Z " fill="#AC6C6A" transform="translate(110,252)"/>
<path d="M0 0 C1.65 0 3.3 0 5 0 C5.33 0.66 5.66 1.32 6 2 C5.01 2 4.02 2 3 2 C3 4.64 3 7.28 3 10 C2.01 10 1.02 10 0 10 C0 6.7 0 3.4 0 0 Z " fill="#F25C5D" transform="translate(94,252)"/>
<path d="M0 0 C0.99 0 1.98 0 3 0 C4.4783226 2.95664519 4.06032783 5.74229737 4 9 C2.68 9 1.36 9 0 9 C0 6.03 0 3.06 0 0 Z " fill="#892323" transform="translate(135,253)"/>
<path d="M0 0 C0.66 0 1.32 0 2 0 C3.0024305 5.34629602 2.84888195 9.62374766 2 15 C1.34 15 0.68 15 0 15 C0 10.05 0 5.1 0 0 Z " fill="#EF3336" transform="translate(121,247)"/>
<path d="M0 0 C1.99954746 -0.04254356 4.00041636 -0.04080783 6 0 C7 1 7 1 7.0625 3.5625 C7.041875 4.366875 7.02125 5.17125 7 6 C4.69 6 2.38 6 0 6 C0.33 5.34 0.66 4.68 1 4 C2.32 4 3.64 4 5 4 C5 3.34 5 2.68 5 2 C3.35 2.33 1.7 2.66 0 3 C0 2.01 0 1.02 0 0 Z " fill="#F34042" transform="translate(153,252)"/>
<path d="M0 0 C1.98 0.99 1.98 0.99 4 2 C4 4.97 4 7.94 4 11 C3.01 11 2.02 11 1 11 C0.67 7.37 0.34 3.74 0 0 Z " fill="#B17C75" transform="translate(146,251)"/>
<path d="M0 0 C0.99 0 1.98 0 3 0 C3 3.3 3 6.6 3 10 C2.01 10 1.02 10 0 10 C0 6.7 0 3.4 0 0 Z " fill="#9F7F80" transform="translate(174,252)"/>
<path d="M0 0 C0.99 0 1.98 0 3 0 C3 3.3 3 6.6 3 10 C2.01 10 1.02 10 0 10 C0 6.7 0 3.4 0 0 Z " fill="#F96B6D" transform="translate(131,252)"/>
<path d="M0 0 C0.66 0 1.32 0 2 0 C2 2.97 2 5.94 2 9 C1.01 9 0.02 9 -1 9 C-1.09765625 2.84765625 -1.09765625 2.84765625 -1 1 C-0.67 0.67 -0.34 0.34 0 0 Z " fill="#F76567" transform="translate(101,253)"/>
<path d="M0 0 C2.475 0.99 2.475 0.99 5 2 C5 4.64 5 7.28 5 10 C4.34 10 3.68 10 3 10 C2.67 8.02 2.34 6.04 2 4 C1.01 3.67 0.02 3.34 -1 3 C-0.67 2.01 -0.34 1.02 0 0 Z " fill="#EA4345" transform="translate(183,251)"/>
<path d="M0 0 C0.33 0.66 0.66 1.32 1 2 C1.66 2 2.32 2 3 2 C6 5.46153846 6 5.46153846 6 8 C6.66 8.33 7.32 8.66 8 9 C4.93795671 8.66896829 3.39949096 8.39949096 1.1875 6.1875 C0 4 0 4 0 0 Z " fill="#908884" transform="translate(160,254)"/>
<path d="M0 0 C0.66 0 1.32 0 2 0 C2 2.64 2 5.28 2 8 C0.68 8 -0.64 8 -2 8 C-1.125 1.125 -1.125 1.125 0 0 Z " fill="#A77677" transform="translate(180,252)"/>
<path d="M0 0 C2.475 0.495 2.475 0.495 5 1 C4.34 1.66 3.68 2.32 3 3 C2.75787127 4.98128508 2.75787127 4.98128508 2.875 7.125 C2.936875 9.043125 2.936875 9.043125 3 11 C2.34 10.67 1.68 10.34 1 10 C0.5859375 7.71484375 0.5859375 7.71484375 0.375 4.9375 C0.30023437 4.01839844 0.22546875 3.09929687 0.1484375 2.15234375 C0.09945313 1.44207031 0.05046875 0.73179687 0 0 Z " fill="#6E79A3" transform="translate(25,144)"/>
<path d="M0 0 C2.97 0.33 5.94 0.66 9 1 C7.515 2.485 7.515 2.485 6 4 C5.34 4 4.68 4 4 4 C4 3.34 4 2.68 4 2 C3.01 2.33 2.02 2.66 1 3 C0.67 2.01 0.34 1.02 0 0 Z " fill="#A13535" transform="translate(99,251)"/>
<path d="M0 0 C0.99 0 1.98 0 3 0 C3 0.99 3 1.98 3 3 C1.68 2.67 0.36 2.34 -1 2 C-0.67 1.34 -0.34 0.68 0 0 Z " fill="#B0676B" transform="translate(174,248)"/>
<path d="M0 0 C0.99 0 1.98 0 3 0 C3 0.99 3 1.98 3 3 C2.01 3 1.02 3 0 3 C0 2.01 0 1.02 0 0 Z " fill="#FB5C60" transform="translate(131,248)"/>
</svg>
